<svg width="137" height="36" viewBox="0 0 137 36" fill="none" xmlns="http://www.w3.org/2000/svg">
<path fill-rule="evenodd" clip-rule="evenodd" d="M40.4946 4.70641C40.4946 5.68467 40.227 6.46727 39.6796 7.05423C39.0713 7.74553 38.2562 8.0977 37.2709 8.0977C36.322 8.0977 35.5069 7.74553 34.8378 7.04118C34.5163 6.70143 34.263 6.29472 34.0935 5.84609C33.9241 5.39746 33.842 4.9164 33.8524 4.4325C33.8524 3.38903 34.1809 2.50207 34.85 1.79773C35.5069 1.09338 36.3098 0.741211 37.2709 0.741211C37.7331 0.741211 38.1832 0.845558 38.609 1.04121C39.047 1.23686 39.3876 1.49773 39.6431 1.82381L39.0591 2.43686C38.8397 2.16131 38.5646 1.94295 38.2548 1.79831C37.9449 1.65368 37.6085 1.58657 37.2709 1.60208C36.5774 1.60208 35.9813 1.86295 35.4704 2.38468C34.9716 2.90642 34.7162 3.58468 34.7162 4.41946C34.7162 5.25423 34.9595 5.93249 35.4704 6.45423C35.9813 6.97597 36.5653 7.23683 37.2709 7.23683C38.0008 7.23683 38.609 6.97597 39.0956 6.45423C39.4119 6.10206 39.6066 5.63249 39.6552 5.01945H37.2709V4.17163H40.446C40.4824 4.35424 40.4946 4.53685 40.4946 4.69337" fill="white"/>
<path fill-rule="evenodd" clip-rule="evenodd" d="M40.4944 4.70661H40.3849C40.3849 5.67183 40.1173 6.40226 39.6063 6.97617C38.9981 7.64138 38.2317 7.98051 37.2706 7.98051C36.3461 7.98051 35.5675 7.64138 34.9228 6.96312C34.6073 6.6334 34.3591 6.23714 34.1937 5.79937C34.0282 5.36159 33.9493 4.89181 33.9617 4.41966C33.9617 3.40227 34.278 2.56749 34.9349 1.87619C35.2393 1.54522 35.6034 1.28429 36.005 1.10936C36.4066 0.934431 36.8372 0.849174 37.2706 0.858805C37.7207 0.858805 38.1587 0.950108 38.5723 1.14576C38.9859 1.34141 39.3022 1.58924 39.5577 1.90228L39.6428 1.82402L39.5577 1.74576L38.9859 2.3588L39.0589 2.43706L39.1441 2.37184C38.694 1.78489 38.0492 1.48489 37.2706 1.48489C36.5407 1.48489 35.9203 1.7588 35.3972 2.30662C34.8741 2.8414 34.6065 3.55879 34.6065 4.41966C34.6065 5.28052 34.8741 5.98487 35.3972 6.53269C35.9203 7.08052 36.5529 7.35443 37.2706 7.35443C38.0249 7.35443 38.6696 7.08052 39.1806 6.53269C39.5212 6.16748 39.7158 5.65878 39.7645 5.0327V4.90226H37.3923V4.28922H40.4579V4.17183L40.3484 4.19792C40.3849 4.36748 40.3971 4.53705 40.3971 4.70661H40.6161C40.6161 4.52401 40.6039 4.3414 40.5674 4.15879L40.5552 4.05444H37.149V5.13705H39.6428V5.01966H39.5212C39.4847 5.60661 39.3022 6.05009 39.0103 6.36313C38.5358 6.87182 37.964 7.11965 37.2585 7.11965C36.5894 7.11965 36.0176 6.85878 35.531 6.36313C35.0444 5.86748 34.8011 5.22835 34.8011 4.41966C34.8011 3.61097 35.0444 2.98488 35.531 2.46315C36.0176 1.9675 36.5894 1.71967 37.2585 1.71967C37.9884 1.71967 38.548 1.98054 38.9616 2.51532L39.0467 2.61967L39.7037 1.90228L39.7767 1.83706L39.7158 1.74576C39.4244 1.38519 39.0576 1.10361 38.6453 0.924021C38.2105 0.726022 37.743 0.623992 37.2706 0.624023C36.2974 0.624023 35.4459 0.989239 34.7768 1.71967C34.4421 2.0678 34.1776 2.4859 33.9997 2.94809C33.8218 3.41028 33.7344 3.90671 33.7427 4.40661C33.7427 5.47617 34.0834 6.38921 34.7768 7.11965C35.1021 7.4722 35.491 7.75001 35.9198 7.93614C36.3485 8.12227 36.8082 8.21281 37.2706 8.20225C38.2803 8.20225 39.1197 7.83703 39.7523 7.11965L39.6793 7.04139L39.7523 7.13269C40.3241 6.51965 40.6039 5.69791 40.6039 4.69357H40.4944V4.70661ZM45.5429 1.7588H42.5503V4.00227H45.251V4.83705H42.5503V7.08052H45.5429V7.94138H41.7109V0.897935H45.5429V1.7588Z" fill="white"/>
<path fill-rule="evenodd" clip-rule="evenodd" d="M45.5431 1.75853V1.64114H42.441V4.11939H45.1416V4.71939H42.441V7.19763H45.4336V7.82372H41.8205V1.01506H45.4336V1.75853H45.5431V1.64114V1.77157H45.6526V0.780273H41.6016V8.0585H45.6526V6.96285H42.6599V4.95417H45.3606V3.88461H42.6599V1.87592H45.6526V1.75853H45.5309H45.5431ZM49.0953 7.94111H48.2559V1.75853H46.4311V0.897664H50.9322V1.75853H49.1075V7.94111" fill="white"/>
<path fill-rule="evenodd" clip-rule="evenodd" d="M49.0954 7.94111V7.82372H48.3655V1.64114H46.5407V1.01506H50.8228V1.64114H48.9981V7.94111H49.0954V7.82372V7.95415H49.217V1.87592H51.0418V0.780273H46.3096V1.87592H48.1465V8.0585H49.2049V7.94111H49.0954ZM54.2048 7.94111H55.0563V0.897664H54.2048V7.94111Z" fill="white"/>
<path fill-rule="evenodd" clip-rule="evenodd" d="M54.2047 7.94111H54.3142V1.0281H54.9346V7.82372H54.2047V7.95415H54.3142H54.1925V8.0585H55.1657V0.780273H54.0952V8.0585H54.2047V7.94111ZM58.791 7.94111H57.9394V1.75853H56.1146V0.897664H60.6157V1.75853H58.791V7.94111Z" fill="white"/>
<path fill-rule="evenodd" clip-rule="evenodd" d="M58.7907 7.94128V7.82389H58.0608V1.64131H56.2239V1.01522H60.506V1.64131H58.6812V7.94128H58.7907V7.82389V7.95432H58.9002V1.87609H60.725V0.780442H56.0049V1.87609H57.8297V8.05867H58.9002V7.94128H58.7785H58.7907ZM64.9706 6.44129C65.4572 6.96302 66.0655 7.22389 66.7589 7.22389C67.4645 7.22389 68.0606 6.96302 68.5472 6.44129C69.0338 5.91955 69.2771 5.24129 69.2771 4.41956C69.2771 3.59782 69.0338 2.93261 68.5472 2.39783C68.0606 1.87609 67.4645 1.61522 66.7589 1.61522C66.0533 1.61522 65.4572 1.87609 64.9706 2.39783C64.484 2.91956 64.2407 3.59782 64.2407 4.41956C64.2407 5.24129 64.484 5.91955 64.9706 6.44129ZM69.1676 7.02824C68.5228 7.74563 67.7199 8.0978 66.7589 8.0978C65.7978 8.0978 64.9949 7.74563 64.3502 7.02824C64.0331 6.68557 63.7836 6.27805 63.6164 5.8299C63.4492 5.38175 63.3678 4.90213 63.377 4.41956C63.3672 3.93805 63.4476 3.45934 63.6135 3.01176C63.7794 2.56419 64.0273 2.15685 64.3427 1.81387C64.658 1.47089 65.0344 1.19924 65.4494 1.01501C65.8644 0.830777 66.3097 0.737708 66.7589 0.741312C67.2081 0.737708 67.6533 0.830777 68.0684 1.01501C68.4834 1.19924 68.8597 1.47089 69.1751 1.81387C69.4904 2.15685 69.7384 2.56419 69.9043 3.01176C70.0701 3.45934 70.1506 3.93805 70.1408 4.41956C70.1408 5.44999 69.8123 6.3239 69.1676 7.02824Z" fill="white"/>
<path fill-rule="evenodd" clip-rule="evenodd" d="M64.9705 6.44149L64.8975 6.51975C65.4085 7.06757 66.0289 7.35453 66.7588 7.35453C67.4887 7.35453 68.1213 7.06757 68.6201 6.51975C69.131 5.97192 69.3865 5.26758 69.3865 4.4328C69.3865 3.57193 69.131 2.86759 68.6201 2.31977C68.3803 2.05056 68.0911 1.83744 67.7708 1.69378C67.4505 1.55012 67.106 1.47904 66.7588 1.48499C66.0289 1.48499 65.4085 1.77194 64.8975 2.31977C64.6442 2.59617 64.4456 2.92474 64.3139 3.28566C64.1822 3.64658 64.12 4.03237 64.1311 4.41976C64.1311 5.26758 64.3866 5.98497 64.8975 6.51975L65.0557 6.36323C64.8209 6.10781 64.6373 5.80371 64.5159 5.46953C64.3946 5.13535 64.3382 4.77813 64.3501 4.41976C64.3501 3.63715 64.5934 2.98498 65.0557 2.47629C65.276 2.23165 65.5409 2.03824 65.8339 1.9081C66.1269 1.77795 66.4417 1.71384 66.7588 1.71977C67.4401 1.71977 67.9997 1.98064 68.4619 2.47629C68.9364 2.99802 69.1675 3.62411 69.1675 4.4328C69.1675 5.2154 68.9242 5.85453 68.4619 6.36323C67.9997 6.87192 67.4401 7.11974 66.7588 7.11974C66.4417 7.12567 66.1269 7.06157 65.8339 6.93142C65.5409 6.80127 65.276 6.60786 65.0557 6.36323L64.9705 6.44149ZM69.1675 7.02844L69.0945 6.95018C68.4619 7.64148 67.6955 7.98061 66.7588 7.99365C66.325 7.99551 65.8953 7.90419 65.495 7.72508C65.0946 7.54597 64.7318 7.28269 64.428 6.95079C64.1241 6.61889 63.8853 6.22508 63.7256 5.79262C63.566 5.36015 63.4888 4.89778 63.4986 4.4328C63.4871 3.96673 63.5631 3.50296 63.722 3.06897C63.8809 2.63498 64.1194 2.23961 64.4235 1.90631C64.7275 1.57301 65.0909 1.30856 65.4921 1.12864C65.8932 0.948722 66.324 0.856996 66.7588 0.858903C67.6955 0.858903 68.4619 1.19803 69.0824 1.90238C69.715 2.59368 70.0312 3.42846 70.0312 4.41976C70.0312 5.4241 69.7149 6.25888 69.0945 6.95018L69.2527 7.11974C69.9096 6.38931 70.2502 5.47627 70.2502 4.41976C70.26 3.92283 70.1767 3.42886 70.0053 2.96704C69.8339 2.50522 69.5779 2.08495 69.2524 1.73107C68.9269 1.37719 68.5385 1.0969 68.1102 0.906765C67.6819 0.716632 67.2224 0.620522 66.7588 0.624121C66.2963 0.622271 65.8381 0.71967 65.4112 0.910584C64.9843 1.1015 64.5974 1.38207 64.2731 1.73577C63.9489 2.08946 63.694 2.50915 63.5234 2.97009C63.3527 3.43104 63.2698 3.92394 63.2796 4.41976C63.2796 5.47627 63.608 6.37627 64.2771 7.11974C64.934 7.85018 65.7734 8.21539 66.7588 8.21539C67.7442 8.21539 68.5836 7.85018 69.2527 7.11974L69.1675 7.02844ZM71.3329 7.94148V0.898033H72.3548L75.5421 6.37627H75.5786L75.5421 5.01975V0.898033H76.3936V7.94148H75.5056L72.1602 2.20237H72.1237L72.1602 3.55889V7.94148H71.3208" fill="white"/>
<path fill-rule="evenodd" clip-rule="evenodd" d="M71.3331 7.94111H71.4304V1.0281H72.282L75.4814 6.50633H75.6882L75.6517 5.01938V1.01506H76.2721V7.82372H75.5665L72.2211 2.08461H72.0143L72.0508 3.55852V7.82372H71.3209V7.95415H71.4426H71.3209V8.0585H72.2698V3.55852L72.2333 2.18896H72.1238V2.3194H72.1603V2.18896L72.0752 2.25418L75.4449 8.0585H76.4911V0.780273H75.4327V5.01938L75.4692 6.3759H75.5787V6.25851H75.5422V6.38894L75.6395 6.31068L72.4158 0.780273H71.2114V8.0585H71.3331V7.94111Z" fill="white"/>
<path fill-rule="evenodd" clip-rule="evenodd" d="M1.82158 30.3236L1.96756 30.3627C1.91818 30.353 1.86943 30.3399 1.82158 30.3236ZM22.624 15.4541C23.1714 15.7802 23.512 16.2106 23.6215 16.6541L23.6458 16.8237C23.5972 17.3193 23.2444 17.815 22.6118 18.1932L3.39088 29.8932C3.00159 30.141 2.62448 30.2453 2.29602 30.2453C1.95539 30.2453 1.66343 30.128 1.42013 29.9062L1.34714 29.828C1.02828 29.4156 0.8674 28.8888 0.897025 28.354V5.29328C0.897025 4.58894 1.09167 4.05416 1.42013 3.72807C1.66343 3.50633 1.95539 3.38894 2.29602 3.38894C2.62448 3.38894 3.00159 3.50633 3.39088 3.74112L22.6118 15.4541H22.624ZM2.28385 3.23242H2.45416H2.28385ZM113.96 29.7888H116.223V13.4846H113.96V29.7888ZM134.397 19.3541L131.794 26.4236H131.721L129.02 19.3541H126.575L130.626 29.241L128.315 34.7323H130.687L136.928 19.3541H134.397ZM121.527 27.9367C120.785 27.9367 119.75 27.5454 119.75 26.5541C119.75 25.2888 121.04 24.8062 122.147 24.8062C123.157 24.8062 123.619 25.041 124.227 25.3541C124.145 26.0621 123.826 26.714 123.329 27.1889C122.832 27.6639 122.192 27.9295 121.527 27.9367ZM121.806 19.0019C120.152 19.0019 118.461 19.7845 117.755 21.4932L119.763 22.4062C120.201 21.4932 121.004 21.2063 121.831 21.2063C123.011 21.2063 124.203 21.9497 124.227 23.2932V23.4628C123.497 23.048 122.682 22.8329 121.855 22.8367C119.69 22.8367 117.476 24.1149 117.476 26.5019C117.476 28.6932 119.264 30.1019 121.247 30.1019C122.78 30.1019 123.619 29.3584 124.154 28.4975H124.227V29.7627H126.417V23.5019C126.417 20.6193 124.398 19.0019 121.794 19.0019H121.806ZM107.768 21.3497H104.544V15.7411H107.768C109.471 15.7411 110.444 17.2541 110.444 18.5454C110.444 19.8106 109.471 21.3367 107.768 21.3367V21.3497ZM107.719 13.4846H102.269V29.7888H104.544V23.6062H107.707C110.225 23.6062 112.695 21.6497 112.695 18.5454C112.695 15.4411 110.225 13.4846 107.707 13.4846H107.719ZM78.0484 27.9367C76.4912 27.9367 75.1774 26.528 75.1774 24.5975C75.1774 22.641 76.4912 21.2063 78.0484 21.2063C79.6055 21.2063 80.822 22.641 80.822 24.5975C80.822 26.528 79.6055 27.9367 78.0484 27.9367ZM80.6639 20.2671H80.5787C80.2328 19.8647 79.8108 19.546 79.3409 19.3323C78.871 19.1186 78.364 19.0149 77.8537 19.028C76.5145 19.0823 75.2479 19.6946 74.3232 20.7347C73.3986 21.7748 72.8889 23.1607 72.9025 24.5975C72.8923 26.0296 73.4042 27.4093 74.3291 28.4424C75.2541 29.4755 76.5188 30.0804 77.8537 30.128C78.3664 30.1421 78.8758 30.0362 79.3464 29.8177C79.8171 29.5992 80.2376 29.2733 80.5787 28.8627H80.6639V29.6584C80.6639 31.7845 79.6055 32.9192 77.9024 32.9192C77.3331 32.9076 76.7799 32.7139 76.3139 32.363C75.848 32.0121 75.4903 31.5199 75.2869 30.9497L73.3161 31.8236C73.6875 32.7995 74.3227 33.6341 75.14 34.2198C75.9573 34.8056 76.9193 35.1158 77.9024 35.1105C80.5666 35.1105 82.8171 33.4149 82.8171 29.3323V19.3671H80.6639V20.2802V20.2671ZM84.3864 29.7888H86.6613V13.4846H84.3864V29.7888ZM90.0067 24.4019C89.982 23.9984 90.0327 23.5938 90.1557 23.2116C90.2788 22.8294 90.4717 22.4774 90.7232 22.1762C90.9747 21.8749 91.2797 21.6305 91.6204 21.4572C91.9612 21.284 92.3307 21.1853 92.7074 21.1671C93.6198 21.1671 94.3862 21.6497 94.6295 22.341L90.0067 24.4149V24.4019ZM97.0625 22.5628C96.6367 21.3236 95.3229 19.041 92.6344 19.041C89.9702 19.041 87.7562 21.2715 87.7562 24.5715C87.7562 27.6888 89.9459 30.128 92.8899 30.128C95.2621 30.128 96.6367 28.5627 97.2085 27.6627L95.4445 26.4106C95.1787 26.8806 94.8034 27.2685 94.3555 27.5361C93.9076 27.8036 93.4025 27.9417 92.8899 27.9367C91.7342 27.9367 90.9069 27.3758 90.3838 26.2541L97.3058 23.1889L97.0625 22.5628ZM41.9544 20.7367V23.0845H47.1976C47.1219 24.1871 46.7019 25.2302 46.0054 26.0454C45.4782 26.6212 44.8442 27.0721 44.1442 27.3686C43.4443 27.6652 42.6942 27.801 41.9422 27.7671C41.1798 27.7654 40.4253 27.6017 39.7223 27.2853C39.0193 26.969 38.3818 26.5063 37.8467 25.924C37.3116 25.3418 36.8895 24.6515 36.6048 23.8932C36.3201 23.1349 36.1785 22.3236 36.1881 21.5063C36.1738 20.2926 36.493 19.1012 37.1059 18.0807C37.7188 17.0602 38.5983 16.2557 39.6347 15.7675C40.6712 15.2794 41.8187 15.1291 42.9343 15.3354C44.0499 15.5418 45.0841 16.0957 45.9081 16.928L47.453 15.2715C46.728 14.5026 45.8671 13.8966 44.9208 13.4889C43.9745 13.0813 42.9619 12.8803 41.9422 12.8976C39.8015 12.8973 37.7465 13.8001 36.2214 15.4109C34.6963 17.0217 33.8235 19.2112 33.7916 21.5063C33.8235 23.8013 34.6963 25.9908 36.2214 27.6016C37.7465 29.2124 39.8015 30.1152 41.9422 30.1149C44.3388 30.1149 46.1392 29.2801 47.5504 27.7019C48.8293 26.2034 49.5105 24.2277 49.4481 22.1976C49.4481 21.6497 49.4116 21.1541 49.3265 20.7367H41.9422H41.9544ZM55.4212 27.9367C53.8519 27.9367 52.5016 26.5541 52.5016 24.5715C52.5016 22.5758 53.8519 21.2193 55.4212 21.2193C57.0027 21.2193 58.3408 22.5758 58.3408 24.5715C58.3408 26.5541 57.0027 27.9367 55.4212 27.9367ZM55.4212 19.028C54.738 19.0157 54.0593 19.1506 53.4255 19.4245C52.7918 19.6984 52.2156 20.1058 51.7313 20.6227C51.247 21.1396 50.8643 21.7553 50.6058 22.4336C50.3474 23.1119 50.2185 23.8388 50.2267 24.5715C50.2168 25.3052 50.3445 26.0335 50.6022 26.7133C50.8599 27.3931 51.2424 28.0105 51.7269 28.5287C52.2114 29.047 52.7881 29.4556 53.4227 29.7303C54.0573 30.005 54.7369 30.1403 55.4212 30.128C56.1055 30.1403 56.7851 30.005 57.4197 29.7303C58.0543 29.4556 58.631 29.047 59.1155 28.5287C59.6 28.0105 59.9825 27.3931 60.2402 26.7133C60.4979 26.0335 60.6256 25.3052 60.6157 24.5715C60.6239 23.8388 60.495 23.1119 60.2366 22.4336C59.9781 21.7553 59.5954 21.1396 59.1111 20.6227C58.6268 20.1058 58.0507 19.6984 57.4169 19.4245C56.7831 19.1506 56.1045 19.0157 55.4212 19.028ZM66.7591 27.9367C65.1777 27.9367 63.8395 26.5541 63.8395 24.5715C63.8395 22.5758 65.1777 21.2193 66.7591 21.2193C68.3163 21.2193 69.6788 22.5758 69.6788 24.5715C69.6788 26.5541 68.3163 27.9367 66.7591 27.9367ZM66.7591 19.028C66.0759 19.0157 65.3973 19.1506 64.7635 19.4245C64.1297 19.6984 63.5536 20.1058 63.0692 20.6227C62.5849 21.1396 62.2022 21.7553 61.9437 22.4336C61.6853 23.1119 61.5564 23.8388 61.5646 24.5715C61.5547 25.3052 61.6824 26.0335 61.9401 26.7133C62.1979 27.3931 62.5803 28.0105 63.0648 28.5287C63.5493 29.047 64.126 29.4556 64.7606 29.7303C65.3952 30.005 66.0748 30.1403 66.7591 30.128C67.4434 30.1403 68.123 30.005 68.7576 29.7303C69.3923 29.4556 69.9689 29.047 70.4534 28.5287C70.9379 28.0105 71.3204 27.3931 71.5781 26.7133C71.8358 26.0335 71.9635 25.3052 71.9536 24.5715C71.9619 23.8388 71.8329 23.1119 71.5745 22.4336C71.3161 21.7553 70.9333 21.1396 70.449 20.6227C69.9647 20.1058 69.3886 19.6984 68.7548 19.4245C68.121 19.1506 67.4424 19.0157 66.7591 19.028Z" fill="white"/>
</svg>
